<svg width="667" height="232" viewBox="0 0 667 232" fill="none" xmlns="http://www.w3.org/2000/svg">
<path d="M37 12.0014V56.0066H0V93.011H37V172.52C39.4 200.524 53.3333 214.859 60 218.526C97.6 242.929 135 228.694 149 218.526L133 185.022C95 203.824 82.5 181.521 81 168.02V93.011H137V56.0066H81V0L37 12.0014Z" fill="#1F2531"/>
<path fill-rule="evenodd" clip-rule="evenodd" d="M244 232C295.362 232 337 190.362 337 139C337 87.6376 295.362 46 244 46C192.638 46 151 87.6376 151 139C151 190.362 192.638 232 244 232ZM244 189C271.614 189 294 166.614 294 139C294 111.386 271.614 89 244 89C216.386 89 194 111.386 194 139C194 166.614 216.386 189 244 189Z" fill="#1F2531"/>
<path d="M459.655 109.628L501.214 98.155C499.378 88.5115 488.195 66.9298 458.152 57.7518C420.599 46.2793 383.983 51.6557 366.021 76.7064C353.504 94.1648 349.999 114.616 364.519 135.566C376.136 152.325 415.425 160.173 433.618 162.501C438.625 163 462.659 166.492 461.157 180.458C459.955 191.631 445.635 196.087 438.625 196.919C408.982 200.909 396.899 184.615 394.562 175.969L351 187.94C360.514 225.351 404.576 235.826 445.134 230.837C485.692 225.849 506.721 202.406 503.717 171.48C500.713 140.554 469.669 128.582 434.619 123.594C420.098 121.528 404.076 116.112 401.071 106.136C399.903 99.984 401.271 89.1765 424.104 87.1813C446.936 85.1861 457.318 101.314 459.655 109.628Z" fill="#1F2531"/>
<path d="M622.655 109.628L664.214 98.155C662.378 88.5115 651.195 66.9298 621.152 57.7518C583.599 46.2793 546.983 51.6557 529.021 76.7064C516.504 94.1648 512.999 114.616 527.519 135.566C539.136 152.325 578.425 160.173 596.617 162.501C601.625 163 625.659 166.492 624.157 180.458C622.955 191.631 608.635 196.087 601.625 196.919C571.982 200.909 559.899 184.615 557.562 175.969L514 187.94C523.514 225.351 567.576 235.826 608.134 230.837C648.692 225.849 669.721 202.406 666.717 171.48C663.713 140.554 632.669 128.582 597.619 123.594C583.098 121.528 567.076 116.112 564.071 106.136C562.903 99.984 564.272 89.1765 587.104 87.1813C609.936 85.1861 620.318 101.314 622.655 109.628Z" fill="#1F2531"/>
</svg>
